<svg width="1087" height="394" viewBox="0 0 1087 394" xmlns="http://www.w3.org/2000/svg"><title>Logo with slogan</title><defs><linearGradient x1="50%" y1="0%" x2="50%" y2="100%" id="linearGradient-1"><stop stop-color="#3AA6A2" offset="0%"/><stop stop-color="#255996" offset="100%"/></linearGradient></defs><g id="Logo" fill="none" fill-rule="evenodd"><g id="Logo-with-slogan"><text id="Creating-Green-Futur" font-family="Trebuchet MS" font-size="76" font-style="italic" fill="#255996"><tspan x="156.672" y="334">Creating Green Future</tspan></text><g id="FINEECO---N-" transform="translate(69 54)"><path d="M965.509 99.85c0 21.141-5.606 40.32-16.817 57.537-8.888 13.533-20.5 23.983-34.834 31.35-14.334 7.368-30.189 11.051-47.566 11.051-27.787 0-50.45-8.848-67.986-26.546C780.768 155.465 772 132.482 772 104.295c0-28.108 9.289-51.33 27.867-69.668C818.525 16.209 842.068 7 870.497 7c28.427 0 51.37 8.528 68.826 25.585 17.457 16.977 26.186 39.398 26.186 67.266zm-27.627-.24c0-20.26-6.006-36.475-18.018-48.647-12.012-12.092-28.147-18.138-48.407-18.138-20.34 0-37.436 6.807-51.29 20.42-13.693 13.613-20.54 30.63-20.54 51.05 0 20.18 6.366 36.876 19.099 50.089 12.732 13.133 28.828 19.699 48.287 19.699 20.26 0 37.116-7.087 50.569-21.26 13.533-14.014 20.3-31.752 20.3-53.213z" id="O" fill="#000"/><path d="M775.927 27.115l-3.724 30.03C756.107 40.809 736.93 32.64 714.667 32.64c-19.62 0-35.475 6.966-47.566 20.9-12.172 13.854-18.258 31.911-18.258 54.173 0 20.82 5.845 37.076 17.537 48.767 11.611 11.612 28.027 17.417 49.248 17.417 17.697 0 33.312-5.445 46.846-16.335l-3.964 32.551c-17.057 6.326-32.952 9.49-47.687 9.49-26.906 0-48.567-8.529-64.983-25.585-16.416-16.897-24.624-39.399-24.624-67.506 0-28.668 8.728-52.451 26.185-71.35C664.94 16.265 686.96 6.815 713.466 6.815c20.9 0 41.72 6.767 62.46 20.3z" id="C" fill="#000"/><path d="M404.19 132h-59.092l7.348-59h59.55l-.19 3h62.098l-6.6 53h-62.926l-.189 3zm61.743 8l-7.101 57.021H337L344.475 137h59.4l-.189 3h62.247zm9.341-75L482 11H360.168l-7.099 57h59.24l.19-3h62.775z" id="E" fill="url(#linearGradient-1)"/><path d="M543.19 131h-59.092l7.348-59h59.55l-.19 3h62.098l-6.6 53h-62.926l-.189 3zm61.743 8l-7.101 57.021H476L483.475 136h59.4l-.189 3h62.247zm9.341-75L621 10H499.168l-7.099 57h59.24l.19-3h62.775z" id="E-2" fill="url(#linearGradient-1)"/><path d="M340.219 10.54l-24.264 198.192-112.55-143.66L187.31 196h-27.507L183.946.45l112.55 143.42 16.336-133.33h27.387z" id="Path" fill="#000"/><path d="M161.062 10.54L138.239 196h-27.507l22.823-185.46h27.507z" id="I" fill="#000"/><path d="M114.886 10.54l-3.123 25.584H47.62l-5.886 47.807h64.143l-2.883 23.783H38.731L27.921 196H.414L23.356 10.54h91.53z" id="F" fill="#000"/></g></g></g></svg>