<?xml version="1.0" encoding="UTF-8" standalone="no"?>
<svg width="1087px" height="286px" viewBox="0 0 1087 286" version="1.1" xmlns="http://www.w3.org/2000/svg" xmlns:xlink="http://www.w3.org/1999/xlink" xmlns:sketch="http://www.bohemiancoding.com/sketch/ns">
    <!-- Generator: Sketch 3.3.2 (12043) - http://www.bohemiancoding.com/sketch -->
    <title>Logo - white</title>
    <desc>Created with Sketch.</desc>
    <defs></defs>
    <g id="Logo" stroke="none" stroke-width="1" fill="none" fill-rule="evenodd" sketch:type="MSPage">
        <g id="Logo-with-slogan---white" sketch:type="MSArtboardGroup" fill="#FFFFFF">
            <g id="FINEECO-투명" sketch:type="MSLayerGroup" transform="translate(69.000000, 37.000000)">
                <path d="M965.508789,99.8505859 C965.508789,120.991317 959.903376,140.169836 948.692383,157.386719 C939.803666,170.91999 928.192454,181.37008 913.858398,188.737305 C899.524342,196.104529 883.669032,199.788086 866.291992,199.788086 C838.504744,199.788086 815.842861,190.939542 798.305664,173.242188 C780.768467,155.464755 772,132.482563 772,104.294922 C772,76.1873595 781.28897,52.9649354 799.867188,34.6269531 C818.525484,16.2088923 842.068217,7 870.496094,7 C898.92397,7 921.866124,15.528235 939.323242,32.5849609 C956.780361,49.5616083 965.508789,71.9832591 965.508789,99.8505859 L965.508789,99.8505859 Z M937.881836,99.6103516 C937.881836,79.3504846 931.876037,63.1348265 919.864258,50.9628906 C907.852479,38.8710333 891.716898,32.8251953 871.457031,32.8251953 C851.117086,32.8251953 834.020577,39.6317679 820.166992,53.2451172 C806.473564,66.8584665 799.626953,83.8748979 799.626953,104.294922 C799.626953,124.47471 805.9931,141.170832 818.725586,154.383789 C831.458071,167.516667 847.553614,174.083008 867.012695,174.083008 C887.272562,174.083008 904.128839,166.996165 917.582031,152.822266 C931.115302,138.808524 937.881836,121.071396 937.881836,99.6103516 L937.881836,99.6103516 Z" id="O" sketch:type="MSShapeGroup"></path>
                <path d="M775.926758,27.1152344 L772.203125,57.1445312 C756.107341,40.8085121 736.928822,32.640625 714.666992,32.640625 C695.047753,32.640625 679.192443,39.6073522 667.100586,53.5410156 C654.92865,67.3946005 648.842773,85.4520371 648.842773,107.713867 C648.842773,128.534284 654.688418,144.789981 666.379883,156.481445 C677.991269,168.092831 694.40712,173.898438 715.62793,173.898438 C733.325284,173.898438 748.940362,168.453179 762.473633,157.5625 L758.509766,190.114258 C741.45304,196.440461 725.557691,199.603516 710.823242,199.603516 C683.916858,199.603516 662.255941,191.075281 645.839844,174.018555 C629.423746,157.121986 621.21582,134.620258 621.21582,106.512695 C621.21582,77.8445832 629.944249,54.0616179 647.401367,35.1630859 C664.938564,16.2645539 686.959828,6.81542969 713.46582,6.81542969 C734.366315,6.81542969 755.18642,13.5819636 775.926758,27.1152344 L775.926758,27.1152344 Z" id="C" sketch:type="MSShapeGroup"></path>
                <path d="M543.189457,131.978947 L484.098146,131.978947 L484.098146,131.978947 L491.446391,72.9789474 L491.446391,72.9789474 L550.995068,72.9789474 L550.995068,72.9789474 L550.806418,75.9789474 L612.904476,75.9789474 L606.303511,128.978947 L543.378107,128.978947 L543.189457,131.978947 Z M604.933499,139.978947 L597.831725,197 L476,197 L483.475413,136.978947 L483.475413,136.978947 L542.87504,136.978947 L542.686391,139.978947 L604.933499,139.978947 Z M614.274488,64.9789474 L621,10.9789474 L499.168275,10.9789474 L492.069123,67.9789474 L492.069123,67.9789474 L551.309484,67.9789474 L551.498134,64.9789474 L614.274488,64.9789474 L614.274488,64.9789474 Z" id="E-2" sketch:type="MSShapeGroup"></path>
                <path d="M404.189457,132 L345.098146,132 L345.098146,132 L352.446391,73 L352.446391,73 L411.995068,73 L411.995068,73 L411.806418,76 L473.904476,76 L467.303511,129 L404.378107,129 L404.189457,132 Z M465.933499,140 L458.831725,197.021053 L337,197.021053 L344.475413,137 L344.475413,137 L403.87504,137 L403.686391,140 L465.933499,140 Z M475.274488,65 L482,11 L360.168275,11 L353.069123,68 L353.069123,68 L412.309484,68 L412.498134,65 L475.274488,65 L475.274488,65 Z" id="E" sketch:type="MSShapeGroup"></path>
                <path d="M340.21875,10.5390625 L315.955078,208.732422 L203.405273,65.0722656 L187.30957,196 L159.802734,196 L183.946289,0.44921875 L296.496094,143.869141 L312.832031,10.5390625 L340.21875,10.5390625 Z" id="Path" sketch:type="MSShapeGroup"></path>
                <path d="M161.061523,10.5390625 L138.239258,196 L110.732422,196 L133.554688,10.5390625 L161.061523,10.5390625 Z" id="I" sketch:type="MSShapeGroup"></path>
                <path d="M114.885742,10.5390625 L111.762695,36.1240234 L47.6201172,36.1240234 L41.734375,83.9306641 L105.876953,83.9306641 L102.994141,107.713867 L38.7314453,107.713867 L27.9208984,196 L0.4140625,196 L23.3564453,10.5390625 L114.885742,10.5390625 Z" id="F" sketch:type="MSShapeGroup"></path>
            </g>
        </g>
    </g>
</svg>